<svg xmlns="http://www.w3.org/2000/svg" viewBox="0 0 1195.2 404.0" width="1195" height="404" role="img" aria-label="NSR ELITE Door Knocker"><rect x="20" y="20" width="1155.2" height="242.5" rx="30" ry="30" fill="none" stroke="#ffffff" stroke-width="12"/><path d="M193.88 194.50L159.46 194.50L100.57 97.31L134.77 97.31L193.88 194.50M193.88 97.31L193.88 185.27L165.68 138.84L165.68 97.31L193.88 97.31M128.77 194.50L100.57 194.50L100.57 106.54L128.77 152.75L128.77 194.50M284.11 194.50L271.08 194.50L271.08 158.10L229.04 158.10L209.55 138.62L209.55 116.72L229.04 97.31L240.02 97.31L240.02 131.80L284.70 131.80L303.52 151.29L303.52 175.09L284.11 194.50M300.89 124.55L271.08 124.55L271.08 114.81L245.15 114.81L245.15 97.31L284.04 97.31L300.89 114.23L300.89 124.55M265.95 194.50L225.89 194.50L209.55 175.09L209.55 165.35L241.93 165.35L241.93 176.92L265.95 176.92L265.95 194.50M368.12 165.35L356.70 165.35L356.70 146.53L381.01 146.53L381.01 116.72L356.70 116.72L356.70 97.31L393.68 97.31L413.17 116.72L413.17 145.87L398.08 160.96L416.46 194.50L381.89 194.50L368.12 165.35M351.57 194.50L319.20 194.50L319.20 97.31L351.57 97.31" fill="#ffffff"/><path d="M532.04,71.25L549.09,117.79L598.61,119.62L559.62,150.21L573.18,197.88L532.04,170.25L490.89,197.88L504.46,150.21L465.47,119.62L514.99,117.79Z" fill="#ffffff"/><path d="M685.56 194.50L653.18 194.50L653.18 97.31L685.56 97.31L685.56 135.83L716.54 135.83L716.54 154.58L685.56 154.58L685.56 194.50M741.29 125.43L710.82 125.43L710.82 116.13L690.68 116.13L690.68 97.31L741.29 97.31L741.29 125.43M741.29 194.50L690.68 194.50L690.68 175.09L708.92 175.09L708.92 165.35L741.29 165.35L741.29 194.50M789.19 194.50L756.82 194.50L756.82 97.31L789.19 97.31L789.19 194.50M839.73 194.50L794.32 194.50L794.32 175.09L810.36 175.09L810.36 162.79L839.73 162.79L839.73 194.50M900.45 194.50L848.59 194.50L848.59 173.77L858.33 173.77L858.33 117.96L848.59 117.96L848.59 97.31L900.45 97.31L900.45 117.96L890.71 117.96L890.71 173.77L900.45 173.77L900.45 194.50M995.74 118.47L911.36 118.47L911.36 97.31L995.74 97.31L995.74 118.47M970.39 194.50L936.70 194.50L936.70 123.53L970.39 123.53L970.39 194.50M1040.49 194.50L1008.11 194.50L1008.11 97.31L1040.49 97.31L1040.49 135.83L1071.47 135.83L1071.47 154.58L1040.49 154.58L1040.49 194.50M1096.23 125.43L1065.76 125.43L1065.76 116.13L1045.61 116.13L1045.61 97.31L1096.23 97.31L1096.23 125.43M1096.23 194.50L1045.61 194.50L1045.61 175.09L1063.85 175.09L1063.85 165.35L1096.23 165.35" fill="#ffffff"/><path d="M267.23 386.02L250.86 386.02L250.86 340.61L267.23 340.61Q273.43 340.61 277.33 341.24Q281.22 341.87 283.46 343.38Q285.71 344.90 286.67 347.51Q287.62 350.12 287.89 353.98Q288.15 357.84 288.15 363.32Q288.15 368.79 287.89 372.65Q287.62 376.52 286.67 379.12Q285.71 381.73 283.46 383.25Q281.22 384.77 277.33 385.39Q273.43 386.02 267.23 386.02M264.46 350.58L264.46 376.05L267.23 376.05Q269.34 376.05 270.69 375.89Q272.05 375.72 272.84 375.13Q273.63 374.54 273.96 373.15Q274.29 371.76 274.39 369.42Q274.49 367.08 274.49 363.38Q274.49 359.62 274.39 357.24Q274.29 354.87 273.96 353.51Q273.63 352.16 272.84 351.53Q272.05 350.91 270.69 350.74Q269.34 350.58 267.23 350.58L264.46 350.58M332.35 386.55Q326.48 386.55 322.75 385.85Q319.02 385.16 316.91 383.58Q314.80 381.99 313.87 379.29Q312.95 376.58 312.72 372.65Q312.49 368.73 312.49 363.32Q312.49 357.90 312.72 353.98Q312.95 350.05 313.87 347.34Q314.80 344.64 316.91 343.05Q319.02 341.47 322.75 340.78Q326.48 340.08 332.35 340.08Q338.23 340.08 341.96 340.78Q345.68 341.47 347.80 343.05Q349.91 344.64 350.83 347.34Q351.76 350.05 352.02 353.98Q352.28 357.90 352.28 363.32Q352.28 368.73 352.02 372.65Q351.76 376.58 350.83 379.29Q349.91 381.99 347.80 383.58Q345.68 385.16 341.96 385.85Q338.23 386.55 332.35 386.55M332.35 376.58Q334.20 376.58 335.36 376.42Q336.51 376.25 337.17 375.63Q337.83 375 338.13 373.58Q338.42 372.16 338.52 369.69Q338.62 367.21 338.62 363.32Q338.62 359.42 338.52 356.95Q338.42 354.47 338.13 353.05Q337.83 351.63 337.17 351.01Q336.51 350.38 335.36 350.21Q334.20 350.05 332.35 350.05Q330.50 350.05 329.35 350.21Q328.19 350.38 327.53 351.01Q326.87 351.63 326.58 353.05Q326.28 354.47 326.21 356.95Q326.15 359.42 326.15 363.32Q326.15 367.21 326.21 369.69Q326.28 372.16 326.58 373.58Q326.87 375 327.53 375.63Q328.19 376.25 329.35 376.42Q330.50 376.58 332.35 376.58M396.49 386.55Q390.61 386.55 386.88 385.85Q383.15 385.16 381.04 383.58Q378.93 381.99 378.01 379.29Q377.08 376.58 376.85 372.65Q376.62 368.73 376.62 363.32Q376.62 357.90 376.85 353.98Q377.08 350.05 378.01 347.34Q378.93 344.64 381.04 343.05Q383.15 341.47 386.88 340.78Q390.61 340.08 396.49 340.08Q402.36 340.08 406.09 340.78Q409.82 341.47 411.93 343.05Q414.04 344.64 414.97 347.34Q415.89 350.05 416.15 353.98Q416.42 357.90 416.42 363.32Q416.42 368.73 416.15 372.65Q415.89 376.58 414.97 379.29Q414.04 381.99 411.93 383.58Q409.82 385.16 406.09 385.85Q402.36 386.55 396.49 386.55M396.49 376.58Q398.33 376.58 399.49 376.42Q400.64 376.25 401.30 375.63Q401.96 375 402.26 373.58Q402.56 372.16 402.66 369.69Q402.76 367.21 402.76 363.32Q402.76 359.42 402.66 356.95Q402.56 354.47 402.26 353.05Q401.96 351.63 401.30 351.01Q400.64 350.38 399.49 350.21Q398.33 350.05 396.49 350.05Q394.64 350.05 393.48 350.21Q392.33 350.38 391.67 351.01Q391.01 351.63 390.71 353.05Q390.41 354.47 390.35 356.95Q390.28 359.42 390.28 363.32Q390.28 367.21 390.35 369.69Q390.41 372.16 390.71 373.58Q391.01 375 391.67 375.63Q392.33 376.25 393.48 376.42Q394.64 376.58 396.49 376.58M455.21 386.02L441.61 386.02L441.61 340.61L464.78 340.61Q469.33 340.61 472.10 341.57Q474.88 342.53 476.30 344.41Q477.71 346.29 478.21 349.09Q478.70 351.90 478.70 355.53Q478.70 358.43 478.34 361.01Q477.98 363.58 476.76 365.59Q475.54 367.61 473.16 368.79L479.63 386.02L465.64 386.02L459.76 368L463.13 369.85Q462.53 370.25 461.87 370.34Q461.21 370.44 460.16 370.44L455.21 370.44L455.21 386.02M455.21 350.38L455.21 361.01L459.70 361.01Q461.54 361.01 462.60 360.84Q463.66 360.68 464.22 360.15Q464.78 359.62 464.94 358.56Q465.11 357.51 465.11 355.73Q465.11 354.01 465.01 352.95Q464.91 351.90 464.42 351.37Q463.92 350.84 462.80 350.61Q461.68 350.38 459.70 350.38L455.21 350.38M552.39 386.02L538.79 386.02L538.79 340.61L552.39 340.61L552.39 358.04L554.30 358.04L565.33 340.61L579.85 340.61L565.33 362.06L580.04 386.02L565.06 386.02L554.30 367.87L552.39 367.87L552.39 386.02M615.27 386.02L602.33 386.02L602.33 340.61L616.26 340.61L627.81 361.34L628.21 361.34L628.21 340.61L641.21 340.61L641.21 386.02L628.60 386.02L615.67 362.33L615.27 362.33L615.27 386.02M686.27 386.55Q680.39 386.55 676.67 385.85Q672.94 385.16 670.82 383.58Q668.71 381.99 667.79 379.29Q666.86 376.58 666.63 372.65Q666.40 368.73 666.40 363.32Q666.40 357.90 666.63 353.98Q666.86 350.05 667.79 347.34Q668.71 344.64 670.82 343.05Q672.94 341.47 676.67 340.78Q680.39 340.08 686.27 340.08Q692.14 340.08 695.87 340.78Q699.60 341.47 701.71 343.05Q703.82 344.64 704.75 347.34Q705.67 350.05 705.94 353.98Q706.20 357.90 706.20 363.32Q706.20 368.73 705.94 372.65Q705.67 376.58 704.75 379.29Q703.82 381.99 701.71 383.58Q699.60 385.16 695.87 385.85Q692.14 386.55 686.27 386.55M686.27 376.58Q688.12 376.58 689.27 376.42Q690.43 376.25 691.09 375.63Q691.75 375 692.04 373.58Q692.34 372.16 692.44 369.69Q692.54 367.21 692.54 363.32Q692.54 359.42 692.44 356.95Q692.34 354.47 692.04 353.05Q691.75 351.63 691.09 351.01Q690.43 350.38 689.27 350.21Q688.12 350.05 686.27 350.05Q684.42 350.05 683.27 350.21Q682.11 350.38 681.45 351.01Q680.79 351.63 680.49 353.05Q680.20 354.47 680.13 356.95Q680.06 359.42 680.06 363.32Q680.06 367.21 680.13 369.69Q680.20 372.16 680.49 373.58Q680.79 375 681.45 375.63Q682.11 376.25 683.27 376.42Q684.42 376.58 686.27 376.58M750.07 386.55Q744.86 386.55 741.36 385.85Q737.86 385.16 735.68 383.54Q733.51 381.93 732.42 379.25Q731.33 376.58 730.93 372.65Q730.54 368.73 730.54 363.32Q730.54 357.90 730.93 353.98Q731.33 350.05 732.42 347.38Q733.51 344.70 735.68 343.09Q737.86 341.47 741.36 340.78Q744.86 340.08 750.07 340.08Q752.12 340.08 754.33 340.25Q756.54 340.41 758.55 340.68Q760.57 340.94 762.02 341.27L762.02 350.64Q759.64 350.45 757.99 350.31Q756.34 350.18 755.22 350.12Q754.10 350.05 753.31 350.05Q750.67 350.05 748.95 350.28Q747.23 350.51 746.24 351.24Q745.25 351.96 744.83 353.42Q744.40 354.87 744.30 357.28Q744.20 359.69 744.20 363.32Q744.20 366.95 744.30 369.35Q744.40 371.76 744.83 373.22Q745.25 374.67 746.24 375.39Q747.23 376.12 748.95 376.35Q750.67 376.58 753.31 376.58Q755.35 376.58 757.89 376.42Q760.43 376.25 762.28 375.99L762.28 385.49Q760.83 385.76 758.75 386.02Q756.67 386.28 754.43 386.42Q752.18 386.55 750.07 386.55M800.48 386.02L786.88 386.02L786.88 340.61L800.48 340.61L800.48 358.04L802.39 358.04L813.41 340.61L827.93 340.61L813.41 362.06L828.13 386.02L813.15 386.02L802.39 367.87L800.48 367.87L800.48 386.02M882.96 386.02L850.42 386.02L850.42 340.61L882.96 340.61L882.96 350.58L863.95 350.58L863.95 358.17L879.86 358.17L879.86 368L863.95 368L863.95 376.05L882.96 376.05L882.96 386.02M921.88 386.02L908.29 386.02L908.29 340.61L931.45 340.61Q936.01 340.61 938.78 341.57Q941.55 342.53 942.97 344.41Q944.39 346.29 944.88 349.09Q945.38 351.90 945.38 355.53Q945.38 358.43 945.02 361.01Q944.65 363.58 943.43 365.59Q942.21 367.61 939.83 368.79L946.30 386.02L932.31 386.02L926.44 368L929.80 369.85Q929.21 370.25 928.55 370.34Q927.89 370.44 926.83 370.44L921.88 370.44L921.88 386.02M921.88 350.38L921.88 361.01L926.37 361.01Q928.22 361.01 929.27 360.84Q930.33 360.68 930.89 360.15Q931.45 359.62 931.62 358.56Q931.78 357.51 931.78 355.73Q931.78 354.01 931.68 352.95Q931.58 351.90 931.09 351.37Q930.59 350.84 929.47 350.61Q928.35 350.38 926.37 350.38" fill="#ffffff"/></svg>
